<?xml version="1.0" encoding="utf-8"?>
<!DOCTYPE svg PUBLIC "-//W3C//DTD SVG 1.0//EN" "http://www.w3.org/TR/2001/REC-SVG-20010904/DTD/svg10.dtd">
<svg version="1.0" xmlns="http://www.w3.org/2000/svg" width="137" height="396" viewBox="0 0 137 396" preserveAspectRatio="xMidYMid meet">
 <g fill="#199fff">
  <path d="M62.7 388.3 c-0.9 -3.7 -2.7 -12.9 -4.1 -20.3 -1.4 -7.4 -2.9 -15.1 -3.4 -17 -1.4 -6.8 -0.8 -7.7 6.3 -8.5 3.6 -0.3 6.9 -0.4 7.5 0 0.6 0.4 1 8.1 1 21.1 0 13.6 0.4 20.4 1.1 20.4 0.6 0 0.9 2.1 0.7 5.3 -0.3 5.2 -0.3 5.2 -4 5.5 -3.6 0.3 -3.6 0.3 -5.1 -6.5z"/>
 </g>
 <g fill="#fbb00a">
  <path d="M10 89 c0 -5.3 3 -17.4 6.1 -24.9 8.1 -19.1 22 -38 39.9 -53.9 l9.5 -8.5 0.6 9.4 c0.4 5.2 0.7 13.4 0.8 18.3 0.1 8.8 0.1 8.8 -10.4 21 -5.7 6.6 -13.1 15.7 -16.4 20.1 -9.1 12.3 -11.1 14.5 -15.1 16.5 -2.1 1.1 -4.4 2.5 -5.2 3.2 -2.3 2.2 -5.7 3.8 -7.8 3.8 -1.7 0 -2 -0.7 -2 -5z"/>
 </g>
 <g fill="#1f97ff">
  <path d="M69 388.5 c0 -0.8 -0.4 -1.5 -1 -1.5 -0.6 0 -1 -7.5 -1 -20.4 0 -12.2 -0.4 -20.7 -1 -21.1 -0.5 -0.3 -1.2 0.6 -1.6 2 -0.7 3 -2 3.2 -2.9 0.5 -0.8 -2.5 -3.5 -2.6 -3.5 -0.1 0 1 -0.7 2.1 -1.5 2.4 -1 0.5 -1.6 -0.4 -2.1 -3.1 -0.3 -2 -1.5 -8 -2.6 -13.2 -2.4 -12 -3.8 -20.3 -3.5 -20.6 0.1 -0.1 3.1 -2 6.7 -4.2 5.6 -3.3 6.5 -4.4 6.8 -7.1 0.3 -3.1 0.5 -3.2 4.5 -2.9 4.2 0.3 4.2 0.3 5.1 41.1 0.8 39.4 0.5 49.7 -1.5 49.7 -0.5 0 -0.9 -0.7 -0.9 -1.5z"/>
 </g>
 <g fill="#9730d1">
  <path d="M37 221.5 c-0.6 -0.8 -5.1 -3.6 -9.8 -6.2 -10.3 -5.7 -16.5 -11.5 -19.8 -18.6 -3.5 -7.6 -3.2 -9.3 1.9 -11.7 2.3 -1 5.4 -2.1 6.9 -2.5 1.5 -0.3 3.9 -1.6 5.4 -3 1.5 -1.4 3.7 -2.5 4.9 -2.5 1.3 0 2.8 -0.6 3.4 -1.4 0.7 -0.8 2.6 -1.8 4.2 -2.1 1.6 -0.4 2.9 -1.3 2.9 -2.1 0 -0.8 1.3 -1.7 3 -2.1 1.7 -0.3 3 -0.9 3 -1.4 0 -0.5 1.9 -0.9 4.3 -0.9 4.3 0 4.3 0 3.9 19.8 -0.2 10.8 -0.8 20.2 -1.2 20.7 -0.5 0.6 -1.3 2.9 -1.9 5.2 -0.8 2.9 -2.3 5.1 -5 7.2 -4.5 3.6 -4.5 3.6 -6.1 1.6z"/>
  <path d="M83.6 179.8 c-1.1 -27.5 -1.1 -31.8 -0.4 -31.8 0.5 0 0.8 -0.6 0.8 -1.3 0 -1.4 8 -5.7 10.5 -5.7 2.5 0 6.5 -2.3 6.5 -3.7 0 -0.9 1.4 -1.3 4.5 -1.3 2.5 0 4.5 0.2 4.5 0.5 0 0.2 -1.4 2.8 -3.1 5.7 -3.4 5.8 -7.2 16.2 -9.9 27.3 -1.7 7 -1.7 9.5 0.2 9.5 0.6 0 7.4 -6.3 15.3 -14 l14.2 -14.1 1.7 10.5 c1.9 12.3 2 15.6 0.5 15.6 -0.6 0 -2.4 1.1 -4.1 2.5 -1.6 1.4 -3.6 2.5 -4.4 2.5 -0.8 0 -1.4 0.5 -1.4 1 0 0.6 -0.7 1 -1.5 1 -0.9 0 -4.5 1.4 -8.2 3 -3.6 1.7 -7.2 3 -7.9 3 -0.7 0 -3.3 0.9 -5.8 1.9 -2.5 1.1 -6.1 2.3 -7.9 2.6 -3.5 0.7 -3.5 0.7 -4.1 -14.7z"/>
  <path d="M63.8 169.5 c-0.1 -3 -0.2 -6.5 -0.2 -7.7 -0.1 -1.6 0.6 -2.4 2.2 -2.6 2.1 -0.3 2.2 -0.1 2.2 7.7 0 7.4 -0.2 8.1 -2 8.1 -1.7 0 -2 -0.7 -2.2 -5.5z"/>
 </g>
 <g fill="#6637f9">
  <path d="M111 263.7 c0 -0.8 1.7 -1.9 3.8 -2.6 2 -0.7 4.3 -1.5 5.1 -1.8 0.7 -0.3 0.3 0.8 -1 2.6 -1.6 2.2 -3.1 3.1 -5.1 3.1 -1.7 0 -2.8 -0.5 -2.8 -1.3z"/>
  <path d="M35.2 258.3 c0.2 -1.2 -1.1 -2.2 -4.6 -3.5 -7.1 -2.7 -12.5 -6.7 -16.7 -12.2 -3.4 -4.5 -8.5 -15.4 -7.6 -16.2 0.2 -0.2 2.8 0.9 5.8 2.6 3 1.6 9.7 3.9 14.9 5.1 5.2 1.2 11.5 2.7 14 3.5 3.4 1 4.6 1 5.2 0.1 1.1 -1.8 -0.1 -5.8 -3.1 -10 -1.4 -2.1 -3 -4.4 -3.5 -5.1 -1.7 -2.4 4.1 -6.6 9 -6.6 2.7 0 2.7 0 2.1 6.8 -0.4 3.7 -0.7 13.4 -0.7 21.6 0 14.9 0 14.9 -5.5 14.2 -3.5 -0.4 -5.5 -0.2 -5.5 0.4 0 0.5 -0.9 1 -2 1 -1.4 0 -2 -0.6 -1.8 -1.7z"/>
  <path d="M84 232.4 c0 -19.6 0 -19.6 2.8 -18.9 1.5 0.5 5.8 0.8 9.7 0.7 11.6 -0.3 19.7 -4.7 24 -13.3 2.3 -4.4 2.9 -4.9 5.9 -4.9 3.5 0 3.5 0 1.6 6.6 -2.7 9.4 -6.3 15 -14.8 22.9 -21.8 20.3 -19.9 18.1 -17.8 20.4 1.8 2 1.8 2.1 0 2.7 -1.1 0.4 -3.4 1.3 -5.3 2 -6.3 2.6 -6.1 3.3 -6.1 -18.2z"/>
  <path d="M110.7 249.6 c-1.5 -1.4 -2.7 -2.9 -2.7 -3.3 0 -0.4 3.6 -2.2 8 -3.9 4.4 -1.7 8 -2.8 8 -2.5 0 0.3 -2.4 3.2 -5.3 6.4 -5.2 5.9 -5.2 5.9 -8 3.3z"/>
  <path d="M63.3 230.3 c0.4 -10.8 0.7 -23.1 0.7 -27.5 0 -7.6 0.1 -7.8 2.4 -7.8 2.1 0 2.5 0.6 3 4.8 0.3 2.6 0.8 14.6 1.2 26.8 0.6 22.1 0.6 22.1 -2.6 22.8 -1.8 0.3 -3.7 0.6 -4.3 0.6 -0.7 0 -0.8 -6.4 -0.4 -19.7z"/>
 </g>
 <g fill="#fe9403">
  <path d="M10.7 95.3 c-1.5 -1.5 -0.5 -4 2.1 -5.4 1.5 -0.8 3.3 -2 4.1 -2.7 0.7 -0.7 3 -2.1 5.1 -3.2 4 -2 6 -4.2 15.1 -16.5 9 -12.1 26.9 -32.5 28.5 -32.5 1.1 0 1.4 2.8 1.4 15.4 l0 15.4 -18 9.1 c-9.9 5.1 -18 9.5 -18 9.9 0 0.4 -2.6 2.1 -5.7 3.7 -3.1 1.7 -6.8 4 -8.1 5.3 -2.5 2.2 -5.2 2.8 -6.5 1.5z"/>
 </g>
 <g fill="#7835e3">
  <path d="M39.2 223.2 c-3.1 -2 -2.8 -3.5 1.3 -6.6 1.9 -1.5 3.8 -3.8 4.1 -5.1 0.5 -1.9 1.3 -2.5 3.5 -2.5 2.8 0 2.9 0.2 2.9 4.9 0 4.4 -0.3 4.9 -2.5 5.5 -1.3 0.3 -3.5 1.7 -4.8 3 -2.1 2.1 -2.5 2.2 -4.5 0.8z"/>
  <path d="M85.8 217 c-1.5 -0.9 -1.8 -2.6 -1.8 -8.9 0 -7.7 0 -7.7 10.8 -7.8 9.7 0 11.3 -0.3 17.3 -3 4.8 -2.2 7.4 -4.1 9.5 -7.1 2.2 -3.1 3.6 -4.2 5.7 -4.2 2.6 0 2.7 0.2 2.7 4.9 0 5.9 -0.7 8.1 -2.6 8.1 -0.7 0 -2.5 2.2 -3.9 4.9 -2.7 5.4 -6.7 9 -12.9 11.5 -4.8 2 -22.4 3.1 -24.8 1.6z"/>
  <path d="M64 187.3 c0 -13.4 0.1 -14.3 1.9 -14.3 2.5 0 3.1 2.6 3.1 14.8 0 7 -0.4 10.2 -1.1 10.2 -0.7 0 -1.8 0.8 -2.5 1.8 -1.1 1.4 -1.3 -0.5 -1.4 -12.5z"/>
 </g>
 <g fill="#8435d5">
  <path d="M37.3 221.5 c-0.3 -1 0.9 -2.9 3.6 -5.4 2.2 -2.1 4.1 -4.6 4.1 -5.5 0 -2.9 3.1 -8.6 4.6 -8.6 1 0 1.4 1.4 1.4 5 0 3.1 -0.4 5 -1.2 5 -1.2 0 -9.8 8.9 -9.8 10.2 0 1.4 -2.1 0.8 -2.7 -0.7z"/>
  <path d="M90.9 204.5 c-0.4 -0.3 -2 -0.7 -3.5 -0.9 -2.7 -0.3 -2.9 -0.6 -3.2 -5.5 -0.3 -5.3 1 -8.5 3.2 -7.8 0.6 0.2 3.4 -0.6 6.3 -1.9 2.8 -1.2 5.3 -2 5.6 -1.8 0.2 0.2 3.4 -0.9 7 -2.6 3.7 -1.6 7.3 -3 8.2 -3 0.8 0 1.5 -0.4 1.5 -1 0 -0.5 0.6 -1 1.4 -1 0.8 0 2.8 -1.1 4.4 -2.5 1.7 -1.4 4.2 -2.5 5.6 -2.5 2.6 0 2.6 0.1 2.6 7.5 0 5.3 -0.4 7.5 -1.2 7.5 -0.7 0 -2.6 1.9 -4.2 4.2 -3.4 4.8 -12.3 9.3 -20.1 10.1 -2.8 0.3 -6.8 0.9 -9 1.2 -2.2 0.4 -4.3 0.4 -4.6 0z"/>
  <path d="M64 179.3 c0 -7 0.6 -9.3 2.6 -9.3 1.9 0 1.8 4.8 -0.2 6.7 -0.9 0.9 -1.4 2.6 -1.1 3.9 0.2 1.2 0 2.9 -0.4 3.6 -0.5 0.8 -0.9 -1.2 -0.9 -4.9z"/>
 </g>
 <g fill="#453fff">
  <path d="M40.3 285.1 c-8.4 -6.4 -25 -22.8 -24 -23.8 0.4 -0.3 2.6 -0.1 5 0.6 5.9 1.4 13.4 -0.9 14.3 -4.5 0.5 -1.7 1.3 -2.4 3.3 -2.5 1.4 0 3.6 -0.2 4.9 -0.3 1.2 -0.2 2.2 0.1 2.2 0.5 0 0.4 0.9 0.5 2 0.2 1.9 -0.5 2 0 2 17.6 0 10.6 -0.4 18.1 -0.9 18.1 -0.6 0 -4.5 -2.7 -8.8 -5.9z"/>
  <path d="M84.8 273.5 c-0.1 -9.1 -0.2 -18.4 -0.3 -20.7 0 -4.2 0.1 -4.3 4.8 -6 3.8 -1.4 5.1 -1.5 6.7 -0.6 1.4 0.9 3.3 0.9 8.4 -0.1 6.3 -1.2 11.2 -0.8 10.1 0.9 -0.3 0.5 0.1 1 0.7 1.3 0.8 0.3 -1 2.6 -4.6 5.9 -3.7 3.4 -5.7 5.9 -5.2 6.6 0.4 0.7 3.1 1.2 6.7 1.2 3.2 0 5.9 0.4 5.9 0.9 0 2.9 -28.7 27.1 -32.1 27.1 -0.5 0 -1 -7.4 -1.1 -16.5z"/>
  <path d="M62.5 259.8 c0.8 -13.2 1.5 -14.9 6 -14 2.5 0.4 2.5 0.4 2.5 12.7 0 13.4 0 13.5 -6.2 13.5 -3 0 -3 0 -2.3 -12.2z"/>
 </g>
 <g fill="#ff6c0e">
  <path d="M14.8 90.2 c3.2 -3.2 5.2 -3.5 5.2 -0.7 0 2.2 -0.4 2.5 -3.5 2.5 -3.4 0 -3.4 -0.1 -1.7 -1.8z"/>
  <path d="M26 83.5 c1.4 -0.8 2.1 -1.5 1.5 -1.5 -1.6 -0.1 35.9 -19 37.8 -19 1.1 0 1.7 0.8 1.7 2.3 0 1.9 -2.7 3.5 -17.5 11 -14 7 -18.3 8.7 -21.7 8.7 -4.2 -0.1 -4.3 -0.1 -1.8 -1.5z"/>
  <path d="M82.5 31.9 l-0.1 -20.2 6.6 6.9 c3.6 3.8 9.2 10.2 12.4 14.2 7 8.6 7.2 8 -5.8 14.6 -14 7.2 -13.1 8.2 -13.1 -15.5z"/>
 </g>
 <g fill="#ff581e">
  <path d="M1 123.5 c0 -7.5 0 -7.5 6 -3.2 3.3 2.3 6 4.5 6 4.9 0 0.4 -1 0.8 -2.2 1 -1.3 0.2 -2.7 1.3 -3.3 2.6 -0.7 1.5 -1.8 2.2 -3.7 2.2 -2.8 0 -2.8 0 -2.8 -7.5z"/>
  <path d="M19.4 114.3 c-4.5 -7.8 -10 -20.2 -9.2 -20.8 6.1 -4.9 52.5 -29.5 55.7 -29.5 1.5 0 1.5 30.6 0.1 31.5 -0.6 0.4 -4 1.1 -7.6 1.6 -3.7 0.5 -9.9 2 -14 3.4 -4.1 1.4 -8.3 2.5 -9.4 2.5 -1.1 0 -2.5 0.9 -3.2 2 -0.7 1.1 -2 2 -2.8 2 -2.5 0 -3.9 4.6 -3.3 10.5 0.3 3 0.2 5.5 -0.3 5.5 -0.5 0 -3.2 -3.9 -6 -8.7z"/>
  <path d="M82 60.2 c0 -10.8 0 -10.8 6.8 -13.9 3.7 -1.8 8.9 -4.4 11.5 -6 4.9 -2.7 4.9 -2.7 6.8 -0.3 5 6.4 15.9 23.5 15.9 25.1 0 1.6 -0.9 1.7 -10.3 1.2 -5.6 -0.3 -13.7 -0.3 -17.9 0.1 -6.4 0.6 -7.8 1.1 -8.3 2.7 -0.4 1 -1.5 1.9 -2.6 1.9 -1.8 0 -1.9 -0.8 -1.9 -10.8z"/>
 </g>
 <g fill="#ff4d26">
  <path d="M1 143 c0 -11.4 0.3 -15 1.3 -15 0.7 0 1.7 -1 2.2 -2.2 1.4 -3.2 5.4 -3.4 9.5 -0.6 7.6 5 12.9 7.3 14.1 6.1 0.9 -0.9 0.6 -2.2 -1.5 -5.4 -3.4 -5 -7 -15.3 -5.7 -15.7 0.5 -0.2 0.7 -1 0.4 -1.9 -0.4 -1.1 -0.3 -1.4 0.6 -0.9 0.8 0.5 1.4 0.1 1.8 -1.3 0.3 -1.2 1.3 -2.1 2.2 -2.1 0.9 0 2.2 -0.9 2.9 -2 0.7 -1.1 2.1 -2 3.2 -2 1.1 0 5.3 -1.1 9.5 -2.5 4.1 -1.4 9.6 -2.8 12.2 -3.1 2.6 -0.3 5.5 -0.8 6.3 -1.1 0.8 -0.4 2.7 -0.8 4.3 -1 2.7 -0.4 2.7 -0.4 2.7 15.4 0 15.9 0 15.9 -7.7 19.7 -10.8 5.2 -31.7 16.6 -44.5 24.2 -5.9 3.5 -11.4 6.4 -12.3 6.4 -1.3 0 -1.5 -2.2 -1.5 -15z"/>
  <path d="M82.1 90.7 c-0.2 -25.2 0.2 -27 6.4 -27.5 2.2 -0.1 8.8 -0.3 14.8 -0.4 5.9 0 10.7 -0.4 10.7 -0.8 0 -0.4 2 0 4.5 0.9 4.2 1.5 4.5 1.8 4.5 5.2 0 3.8 -3.5 13.2 -7.8 21.3 -2.1 3.9 -2.4 5 -1.3 5.4 0.8 0.3 -0.7 1.8 -4 3.9 -6.9 4.4 -24.4 13.3 -26.2 13.3 -1.1 0 -1.4 -4 -1.6 -21.3z"/>
 </g>
 <g fill="#1c56ff">
  <path d="M62 285.5 c0 -16.9 0 -17 2.3 -17.1 1.2 -0.1 3.2 -0.5 4.3 -0.9 2.1 -0.7 2.2 -0.4 2.9 13.9 0.4 8 0.4 16.1 0.1 18 -0.6 3.4 -0.8 3.4 -5.1 3.3 -4.5 -0.2 -4.5 -0.2 -4.5 -17.2z"/>
 </g>
 <g fill="#fa254e">
  <path d="M62.5 151.6 c-0.7 -12.5 -1.4 -14.3 -4.2 -11.5 -0.9 0.9 -1.3 0.5 -1.7 -1.5 -0.4 -1.4 -0.8 -3.7 -1.1 -5.1 -0.5 -2.5 -0.6 -2.5 -3.8 -0.9 -8.3 4.2 -28.2 15.4 -37.5 21.1 -11.6 7.1 -13.5 7.6 -13 3.7 0.3 -2.9 4.3 -5.6 28.2 -18.8 19.2 -10.7 33.2 -17.6 35.5 -17.6 1.8 0 1.9 1.2 2.6 19.7 0.8 19.9 0.5 22.5 -2.8 23.1 -1.2 0.3 -1.6 -1.7 -2.2 -12.2z"/>
  <path d="M108.8 136.2 c-1.4 -0.3 -1.8 -1.4 -1.8 -4.6 0 -3.6 0.6 -4.9 4.3 -8.8 4.9 -5.3 6.7 -6.3 12.4 -7.3 4.1 -0.6 4.1 -0.7 4.8 -5.5 0.5 -3.6 0.2 -5.6 -1.1 -8.1 -2.2 -4.4 -3 -4.9 -8.8 -4.9 -3.6 0 -5.6 0.5 -7.1 2 -2.6 2.5 -26.2 15 -28.1 15 -0.8 0 -1.4 -1.1 -1.4 -2.5 0 -2.1 1.3 -3.1 9.3 -7.1 5 -2.6 11.6 -6.2 14.5 -8 5.4 -3.5 7.2 -4.1 7.2 -2.4 0 1.9 2.5 1 11.3 -3.9 10.3 -5.8 9.8 -6.1 11.7 7.4 1.9 13.8 0.3 17.4 -11.3 25.9 -2.1 1.5 -6.1 5.1 -9 8 -3.3 3.3 -5.8 5.1 -6.9 4.8z"/>
 </g>
 <g fill="#ef2755">
  <path d="M4.1 187.3 c-1.4 -5.2 -3.4 -28.9 -2.6 -30.3 0.7 -1.1 17.7 -11.4 32.1 -19.3 19.8 -10.9 26.7 -13.4 25 -9.1 -0.3 0.8 -0.1 1.4 0.4 1.4 1.7 0 0.8 8.4 -1.1 11 -1.1 1.5 -2.7 7.5 -4 15.5 -1.1 7.2 -2.6 13.3 -3.1 13.6 -0.6 0.4 -1.9 0.4 -3.1 0.1 -1.4 -0.3 -1.8 -0.1 -1.3 0.6 0.5 0.8 -0.1 1.2 -1.6 1.2 -2.6 0 -5 1.3 -4.9 2.6 0.1 0.5 -1.1 1.3 -2.6 1.8 -1.6 0.5 -3.5 1.5 -4.4 2.2 -0.8 0.8 -2.5 1.4 -3.6 1.4 -1.1 0 -3.2 1.1 -4.7 2.5 -1.5 1.4 -3.9 2.7 -5.4 3.1 -4.1 0.8 -10.1 3.5 -11.3 5.1 -1.8 2.1 -2.4 1.6 -3.8 -3.4z"/>
  <path d="M82.5 149.7 c-0.3 -1.7 -0.5 -11.3 -0.3 -21.2 l0.3 -17.9 11.8 -6.2 c6.6 -3.5 12.8 -7.1 13.9 -8.1 1.1 -1 3.8 -1.9 6.2 -2 2.2 -0.1 5.7 -0.4 7.7 -0.6 2.1 -0.2 4.4 0.2 5.1 0.7 4 3 7.2 15.3 4.7 18.3 -1 1.2 -1 1.6 0.1 2.3 1.8 1.1 -0.5 4.1 -2.6 3.3 -0.8 -0.3 -2.1 0 -2.9 0.7 -0.8 0.6 -1.9 0.9 -2.4 0.5 -1.6 -0.9 -5.2 1.3 -9.8 6.3 -4.4 4.7 -5.4 7.2 -2.8 7.2 2.2 0 1.8 1.3 -1.1 4.1 -1.4 1.3 -3.5 2.3 -4.6 2.1 -1.2 -0.2 -1.8 0.1 -1.4 0.7 0.7 1.1 -4.3 4.1 -6.8 4.1 -2.2 0 -10.6 4.2 -10.1 5.1 0.3 0.4 -0.6 1.4 -2 2.3 -2.4 1.6 -2.4 1.5 -3 -1.7z"/>
 </g>
 <g fill="#0c60ff">
  <path d="M69 390.8 c0 -21 -1.3 -87.4 -1.7 -88.1 -0.3 -0.5 -1.6 -0.6 -2.9 -0.3 -1.3 0.4 -2.4 0.2 -2.4 -0.3 0 -1 3.4 -2.1 6.8 -2.1 1.5 0 2.2 0.6 2.2 1.8 0 2 3 5.1 7 7 1.4 0.7 3.5 2.1 4.8 3 2.3 1.8 2.3 1.8 -0.3 16.7 -1.5 8.3 -3 17.5 -3.5 20.5 -0.4 3.1 -1.5 9.4 -2.4 14 -0.9 4.7 -2.5 13.6 -3.4 19.9 -1.1 6.7 -2.3 11.6 -3 11.9 -0.8 0.2 -1.2 -1 -1.2 -4z"/>
 </g>
</svg>