<?xml version="1.0" encoding="utf-8"?>
<!DOCTYPE svg PUBLIC "-//W3C//DTD SVG 1.0//EN" "http://www.w3.org/TR/2001/REC-SVG-20010904/DTD/svg10.dtd">
<svg version="1.0" xmlns="http://www.w3.org/2000/svg" width="377" height="333" viewBox="0 0 377 333" preserveAspectRatio="xMidYMid meet">
 <g fill="#aacffb">
  <path d="M283 202.5 c0 -3 0.7 -3.9 6.3 -7.9 3.4 -2.5 8.9 -7.2 12.2 -10.5 4.9 -5 6.5 -6.1 9.2 -6.1 1.8 0 3.3 0.2 3.3 0.6 0 0.3 -1 2.6 -2.1 5.2 -4.6 10.1 -13 17.2 -24.3 20.6 -4.6 1.4 -4.6 1.4 -4.6 -1.9z"/>
  <path d="M314.7 164.3 c-0.4 -0.3 -0.7 -2.1 -0.7 -4 0 -2.8 1.2 -4.7 7.8 -11.6 4.2 -4.5 11.1 -12.8 15.1 -18.5 6.5 -8.9 7.8 -10.2 10.4 -10.2 2.9 0 2.9 0 2.2 5.8 -1.6 13.8 -10.6 25.6 -25.7 33.6 -4 2.2 -7.6 4.3 -7.9 4.8 -0.3 0.5 -0.8 0.5 -1.2 0.1z"/>
  <path d="M49.3 157 c-2.9 -1.7 -7.3 -5.1 -9.8 -7.8 -4.7 -4.8 -10.5 -15.4 -10.5 -19.1 0 -4.1 3.5 -2.3 8 4.2 2.4 3.4 7.7 9.3 11.7 13.1 5.7 5.4 7.3 7.6 7.3 9.8 0 1.5 -0.3 2.8 -0.7 2.8 -0.5 0 -3.1 -1.4 -6 -3z"/>
  <path d="M299.3 129 c0.4 -3.3 1.9 -7.4 3.9 -10.9 3.7 -6.3 26.3 -29.7 37.8 -39.3 4.1 -3.4 8 -6.6 8.5 -7.2 0.6 -0.6 3.7 -3.3 7 -6.1 3.3 -2.7 6.6 -5.8 7.3 -6.7 0.7 -1 2.4 -1.8 3.7 -1.8 2 0 2.5 0.7 3.4 5 0.6 2.8 1.1 6.6 1.1 8.3 0 4.9 -2.7 14.5 -5.8 20 -2.4 4.6 -15.3 17.7 -17.3 17.7 -0.5 0 -0.9 1 -0.9 2.3 0 1.2 -0.4 2.8 -0.8 3.5 -1.1 1.7 -14 9.2 -15.8 9.2 -0.8 0 -1.4 0.3 -1.4 0.8 0 1 -5.8 4.2 -7.6 4.2 -0.8 0 -1.4 0.4 -1.4 0.8 0 1.8 -7 4 -14.5 4.7 -7.8 0.8 -7.8 0.8 -7.2 -4.5z"/>
  <path d="M60.9 130.5 c-4.5 -1.2 -14.3 -6.2 -26.2 -13.3 -4.9 -2.9 -5.8 -3.8 -5.3 -5.6 0.4 -1.7 -1 -3.6 -7.3 -9.4 -8.8 -7.9 -12.4 -13.5 -15.2 -23.2 -2.3 -7.9 -2.5 -12.9 -0.4 -13.6 1.6 -0.7 9.1 2.6 12.1 5.3 1 1 4.4 3.7 7.5 6 3.1 2.3 6.2 4.7 7 5.5 0.8 0.7 4.6 4 8.4 7.2 10.9 9.3 18.2 16.5 23.9 23.6 6.8 8.3 7.6 10 7.6 14.9 0 4.1 0 4.1 -3.7 4 -2.1 0 -5.9 -0.7 -8.4 -1.4z"/>
  <path d="M55.7 59 c-1.4 -1.6 -3 -3 -3.6 -3 -0.5 0 -1.4 -0.6 -1.8 -1.3 -0.4 -0.7 -3.6 -3.3 -7 -5.8 -5.6 -4.2 -6.7 -4.7 -13.7 -5.3 -7.9 -0.7 -14.6 0 -14.6 1.5 0 4.6 -9.2 -9.6 -11.9 -18.5 -2.1 -7 -2.9 -20.8 -1.3 -23.4 0.6 -0.9 8.8 6.2 27.8 24 41.4 38.8 37.6 34.8 32.7 34.8 -3.4 0 -4.6 -0.5 -6.6 -3z"/>
  <path d="M323.5 50.3 c18.8 -17.7 34.1 -32 35.5 -33.3 11.3 -10.8 16.2 -15 17 -14.5 1.5 1 1.2 14 -0.6 20.8 -1.7 6.8 -4.4 12.6 -8 17.4 -1.3 1.7 -2.4 3.9 -2.4 4.7 0 1.8 -5.9 2.3 -7.6 0.6 -0.5 -0.5 -4.4 -1.5 -8.7 -2.2 -7.7 -1.2 -7.7 -1.2 -15.6 5 -6.2 4.8 -8.8 6.2 -11.3 6.2 -3.3 0 -3.3 0 1.7 -4.7z"/>
 </g>
 <g fill="#9fbef4">
  <path d="M198 298.5 c0 -1.5 7.2 -14.5 8 -14.5 1.7 0 1.1 5.8 -1.2 10.5 -1.7 3.4 -2.8 4.5 -4.5 4.5 -1.3 0 -2.3 -0.2 -2.3 -0.5z"/>
  <path d="M168.7 289.8 c-3.9 -5.3 -4.7 -7.4 -4.7 -12.7 0 -4.8 0.2 -5.1 2.5 -5.1 1.7 0 2.5 0.6 2.5 1.7 0 0.9 2 5.6 4.5 10.5 4.6 8.8 4.6 8.8 1.1 8.8 -2.8 0 -4 -0.7 -5.9 -3.2z"/>
  <path d="M209 249.8 c0 -12.3 0.5 -24.1 1.1 -26.3 1.5 -5.9 3.8 -46.4 3.9 -67.2 0 -18.3 0 -18.3 2.4 -18.3 1.7 0 2.6 0.7 3 2.5 0.4 1.6 1.1 2.2 2.1 1.9 1.2 -0.5 1.5 0.7 1.5 7 0 4.4 -0.4 7.6 -1 7.6 -0.6 0 -1 6.7 -1 18 0 15.3 0.2 18 1.5 18 1.2 0 1.5 1.7 1.5 8.9 0 8.4 -0.1 8.9 -2 8.4 -2 -0.5 -2 0 -2 19.8 -0.1 20.3 -1.1 33.2 -2.9 36.6 -0.5 1 -1.2 2.6 -1.5 3.6 -0.4 1.1 -1.6 1.7 -3.6 1.7 -3 0 -3 0 -3 -22.2z"/>
  <path d="M158 219 c0 -3.3 0.3 -4 2 -4 1.7 0 2 0.7 2 4 0 3.3 -0.3 4 -2 4 -1.7 0 -2 -0.7 -2 -4z"/>
  <path d="M274 204.3 c0 -2.1 1 -3.4 3.7 -5.3 4.8 -3.2 15.8 -12.6 24.9 -21.2 5.3 -5 7.9 -6.8 9.9 -6.8 2.7 0 2.7 0.1 2.1 4.2 -0.8 4.8 -1.3 5.8 -2.9 5.8 -0.7 0 -3.9 2.7 -7.2 6.1 -3.3 3.3 -8.8 8 -12.2 10.5 -3.8 2.7 -6 5 -5.7 5.8 0.3 0.9 -0.9 1.7 -4 2.5 -7.2 1.8 -8.6 1.5 -8.6 -1.6z"/>
  <path d="M81.4 201 c-6.2 -3.5 -12 -9.9 -15.6 -17.1 -2.7 -5.4 -2.7 -5.4 -0.2 -5.7 1.8 -0.3 3.1 0.5 4.6 2.5 1.2 1.5 5.6 6.2 10 10.4 5.9 5.7 7.8 8.2 7.8 10.2 0 3.4 -0.3 3.4 -6.6 -0.3z"/>
  <path d="M62 165.1 c0 -0.5 -1.6 -1.9 -3.5 -3.1 -5.1 -3.2 -19.7 -18 -25.1 -25.6 -3.9 -5.5 -4.8 -7.6 -5.2 -12 -0.4 -4.8 -0.2 -5.4 1.4 -5.4 1.2 0.1 3.1 2 4.9 5 1.7 2.7 9.4 11.7 17.3 19.9 11.7 12.4 14.2 15.5 14.2 17.9 0 1.8 -0.6 3.2 -1.6 3.6 -2.1 0.8 -2.4 0.8 -2.4 -0.3z"/>
  <path d="M307 162.1 c0 -4.6 1.7 -6.8 18.6 -24.9 6.2 -6.5 12.8 -14.2 14.9 -17 5.3 -7.4 9.4 -6.9 9.5 1.1 0 0.9 -0.6 1.7 -1.3 1.7 -0.8 0 -4.7 4.6 -8.8 10.2 -4 5.7 -10.9 14 -15.1 18.5 -5.2 5.4 -7.6 8.7 -7.2 9.8 0.3 0.8 0.1 1.5 -0.5 1.5 -0.6 0 -1.1 0.7 -1.1 1.5 0 1.1 -1.2 1.5 -4.5 1.5 -4.5 0 -4.5 0 -4.5 -3.9z"/>
  <path d="M287.2 133.2 c0.7 -11.6 3.3 -15.7 21.9 -34.3 8.6 -8.6 19 -18.3 23 -21.5 4.1 -3.3 7.9 -6.5 8.4 -7.1 0.6 -0.7 2.4 -2.3 4.1 -3.5 1.7 -1.3 5.6 -4.4 8.5 -7 3 -2.5 6.5 -5.6 7.9 -6.8 3.5 -3 1.4 -1.7 -15 9.1 -25.1 16.5 -29.3 18.9 -33.3 18.9 -2.1 0 -3.7 -0.5 -3.7 -1 0 -0.6 -1.2 -1.5 -2.7 -2.1 -2.2 -0.8 -3.5 -0.7 -5.9 0.6 -1.7 0.9 -4.4 1.5 -6 1.3 -2.6 -0.3 -1.9 -1.1 11.7 -13.5 7.9 -7.3 18.6 -16.4 23.8 -20.3 8 -6.1 9.7 -7 12.4 -6.6 1.8 0.3 6.5 1 10.4 1.7 4 0.6 7.5 1.5 7.9 2 0.3 0.5 1.4 0.9 2.6 0.9 1.7 0 2 0.5 1.6 3 -0.3 2 0 3 0.8 3 0.7 0 2 2 2.9 4.4 1.9 5 2.1 4.7 -9 14.1 -3.3 2.8 -6.2 5.3 -6.5 5.6 -0.3 0.3 -3.6 3.2 -7.5 6.4 -12 10 -32.4 30.7 -37.1 37.5 -5.1 7.6 -7.4 13.6 -4.6 12.5 0.9 -0.4 3.6 -0.9 6 -1.1 3.6 -0.3 4.2 -0.1 4.2 1.6 0 1.3 -0.7 2 -2 2 -1.1 0 -2 0.6 -2 1.3 0 1.8 -4.1 3.6 -12 5.3 -11.6 2.5 -11.3 2.7 -10.8 -6.4z"/>
  <path d="M73.5 138.8 c-1.1 -0.6 -2.4 -1.7 -2.8 -2.5 -0.4 -0.7 -1.5 -1.3 -2.3 -1.3 -2.1 0 -7.6 -3 -9.5 -5.1 -0.9 -1.1 -2.4 -1.9 -3.3 -1.9 -0.9 0 -1.6 -0.8 -1.6 -2 0 -1.4 0.6 -2 1.8 -1.8 0.9 0.2 2 0.6 2.3 1.1 0.3 0.4 1.4 0.9 2.5 1.2 1 0.2 3.5 0.9 5.4 1.4 1.9 0.6 3.6 1.1 3.7 1.1 0 0 0 -0.8 -0.2 -1.7 -0.2 -1 -0.4 -2.1 -0.4 -2.4 -0.2 -1.1 -8.2 -11.2 -13 -16.3 -2.5 -2.6 -9.1 -8.7 -14.6 -13.4 -5.5 -4.8 -10.6 -9.3 -11.4 -10 -0.8 -0.8 -3.9 -3.2 -7 -5.5 -3.1 -2.3 -6.5 -5 -7.5 -6 -1.1 -0.9 -4 -2.7 -6.4 -3.8 -2.7 -1.3 -4.1 -2.6 -3.8 -3.4 0.3 -0.8 0.8 -3 1.2 -5 0.9 -4.7 2.3 -5.2 7.1 -2.2 8.2 5.2 39.3 30.8 48.8 40.3 19.2 18.9 22.5 23.7 22.5 33 0 5.6 -0.2 6.2 -2.2 6.8 -3.5 0.9 -7.1 0.7 -9.3 -0.6z"/>
  <path d="M325.3 122.7 c0.9 -0.8 1.7 -2 1.7 -2.6 0 -0.7 0.8 -1.1 1.8 -0.9 0.9 0.1 2.3 -0.1 3 -0.6 1 -0.6 1.3 -0.1 1 2 -0.3 2.7 -0.7 2.9 -4.8 3.2 -4 0.2 -4.3 0.1 -2.7 -1.1z"/>
  <path d="M342.3 112.9 c0.9 -0.6 1.5 -1.4 1.2 -2 -0.4 -0.5 0.5 -0.9 1.8 -0.9 1.6 0 2.6 0.7 3 2 0.5 1.8 0 2 -3.6 2 -3.4 -0.1 -3.9 -0.3 -2.4 -1.1z"/>
  <path d="M85.5 89 c-8.3 -5.4 -9.8 -6 -18.4 -7.4 -8.5 -1.4 -10.3 -2.1 -19.5 -7.7 -13.1 -8.1 -33.4 -21.7 -34.3 -23.2 -0.4 -0.6 -0.8 -3 -0.9 -5.4 -0.1 -4.2 -0.1 -4.2 4.3 -4.9 2.4 -0.3 8.6 -0.3 13.9 0.1 9.2 0.7 9.6 0.8 15.3 5.1 3.2 2.4 6.4 4.4 7 4.4 0.7 0 0.9 0.5 0.6 1 -0.3 0.6 0.2 1.3 1.2 1.7 1 0.4 2.6 1.8 3.7 3.1 1 1.3 2.7 2.7 3.6 3 1.6 0.7 40 35 40 35.8 0 0.2 -1.7 0.4 -3.7 0.3 -2.9 0 -6.1 -1.6 -12.8 -5.9z"/>
 </g>
 <g fill="#96abf2">
  <path d="M177.4 310.3 c-3.2 -6.5 -8.7 -17.1 -12.2 -23.6 -6.4 -11.8 -6.4 -11.8 -6.8 -40 -0.3 -15.5 -0.4 -29.9 -0.4 -32 0 -3.1 -0.4 -4 -2 -4.4 -1.9 -0.5 -2 -1.4 -2 -13.3 0 -7 0.3 -22.1 0.7 -33.7 0.5 -18.4 0.8 -21 2.2 -20.9 1.3 0.1 1.6 -1.4 1.9 -8.6 0.2 -7.9 0.5 -8.8 2.2 -8.8 3.4 0 4.8 8.3 5.9 33 0.6 12.4 1.5 34.7 2.2 49.5 1.4 32.8 1 66.6 -0.8 67.3 -0.7 0.2 -1.3 1.4 -1.3 2.6 0 2.9 5.6 11.7 7.9 12.3 1.6 0.4 11.1 17.7 11.1 20.1 0 0.5 0.8 1.6 1.9 2.6 1.4 1.3 2 1.4 2.8 0.4 0.6 -0.7 4.9 -9.2 9.6 -18.8 l8.5 -17.5 0.5 -56.5 c0.3 -31.1 1 -61.4 1.6 -67.5 0.5 -6 1.3 -15.8 1.6 -21.7 0.7 -10.8 0.7 -10.8 3.6 -10.8 2.9 0 2.9 0 2.9 10.5 0 6.3 -0.4 10.5 -1 10.5 -0.6 0 -1 6.8 -1 18.3 -0.1 21.3 -2.5 61.4 -4 67.2 -1.6 5.9 -2.6 43 -1.1 42.1 0.6 -0.4 1.1 -1.4 1.1 -2.2 0 -0.8 0.4 -2.2 0.9 -3.2 0.5 -0.9 1.2 -2.5 1.5 -3.4 0.3 -1 1.2 -1.8 2.1 -1.8 1.2 0 1.5 1.6 1.5 8.9 0 8.4 -0.2 9.4 -3.7 15.8 -2 3.7 -7.1 13.7 -11.4 22.2 -7.8 15.5 -7.8 15.5 -12.1 15.6 -2.4 0.1 -5.2 0.4 -6.4 0.8 -1.9 0.7 -2.7 -0.5 -8 -11z"/>
  <path d="M272 204.8 c0 -2.6 0.6 -3.7 2.8 -5 3.7 -2.2 16.9 -13.6 26.8 -23 5.9 -5.7 8.8 -7.8 10.8 -7.8 2.1 0 2.6 0.5 2.6 2.5 0 1.4 -0.5 2.5 -1.1 2.5 -0.7 0 -4.4 3 -8.3 6.8 -9.1 8.6 -20.1 18 -24.9 21.2 -2 1.4 -3.7 3.1 -3.7 3.8 0 0.6 -0.4 1.2 -0.9 1.2 -0.5 0 -1.6 0.3 -2.5 0.6 -1.3 0.5 -1.6 -0.1 -1.6 -2.8z"/>
  <path d="M89.5 204.6 c-4.8 -1.8 -26.5 -24.1 -26.5 -27.3 0 -3.3 4.5 -0.8 11.8 6.5 4.2 4.3 10.1 9.8 13 12.3 4.4 3.6 5.3 4.9 5 7 -0.3 2.4 -0.5 2.5 -3.3 1.5z"/>
  <path d="M221 197.5 c0 -0.8 -0.7 -1.5 -1.5 -1.5 -1.3 0 -1.5 -3 -1.5 -21 0 -13.3 0.4 -21 1 -21 0.6 0 1 -0.7 1 -1.5 0 -0.8 0.9 -1.5 2 -1.5 1.9 0 2 0.7 2 24 0 20.7 -0.2 24 -1.5 24 -0.8 0 -1.5 -0.7 -1.5 -1.5z"/>
  <path d="M301 164.6 c0 -4.5 4.3 -9.9 24 -30.1 8.6 -8.8 16.2 -17 16.9 -18.3 1.6 -3 7.1 -3.2 7.1 -0.2 0 1.1 -0.4 2 -0.9 2 -0.5 0 -2.6 2.3 -4.6 5.2 -2.1 2.8 -8.7 10.5 -14.9 17 -12.5 13.3 -18.6 20.5 -18.6 21.9 0 0.5 1.1 0.9 2.5 0.9 1.8 0 2.5 0.5 2.5 1.9 0 1.9 -3.9 3.1 -10.7 3.1 -3.1 0 -3.3 -0.2 -3.3 -3.4z"/>
  <path d="M61.6 164.8 c-0.3 -1.3 -0.1 -2.4 0.4 -2.6 0.6 -0.2 -5.4 -7.1 -13.2 -15.3 -14.6 -15.3 -20.8 -23.5 -20.8 -27.6 0 -3.5 3.2 -2.9 5.4 1 1.1 1.7 10.2 11.5 20.3 21.8 16 16.2 18.3 18.9 18.3 21.7 0 3.2 -0.1 3.2 -4.9 3.2 -4.2 0 -4.9 -0.3 -5.5 -2.2z"/>
  <path d="M275 142.5 c-1.6 -5.8 -0.5 -14.5 2.7 -21 1.7 -3.4 7.2 -9.7 17.7 -19.9 8.3 -8.2 14.7 -14.7 14.1 -14.4 -0.5 0.3 -7.3 4.4 -15.1 9.1 -24.5 14.7 -36 20.7 -39.6 20.7 -3.3 -0.1 -3.3 -0.1 4.2 -7.2 17.4 -16.4 37 -33.8 39.7 -35.2 3.5 -1.7 11 -0.6 13 2.1 1.1 1.4 2.1 1 9 -3.3 15.4 -9.5 33.9 -21.7 38 -25 2.3 -1.9 4.5 -3.4 5 -3.4 0.4 0 1.5 1.8 2.4 3.9 1.6 3.9 1.6 3.9 -2.9 7.7 -2.5 2.2 -5.3 4.6 -6.1 5.4 -0.9 0.8 -3.9 3.3 -6.6 5.4 -2.8 2.2 -5.7 4.7 -6.5 5.5 -0.8 0.9 -4.8 4.2 -8.9 7.5 -4 3.2 -14.4 12.9 -23 21.5 -16.8 16.8 -20.8 22.5 -21.8 31 -0.6 5 -0.6 5 2.8 4 1.9 -0.6 4.9 -1.3 6.7 -1.5 2.6 -0.3 3.2 0 3.2 1.6 0 1.1 -0.7 2 -1.5 2 -0.9 0 -3.8 1.1 -6.5 2.5 -6.5 3.3 -12.9 5.5 -16.1 5.5 -2.3 0 -2.8 -0.6 -3.9 -4.5z"/>
  <path d="M220 144.6 c0 -0.8 -0.6 -1.6 -1.2 -1.9 -0.7 -0.2 -0.1 -0.4 1.5 -0.4 2 0 2.7 0.4 2.7 1.8 0 1.1 -0.7 1.9 -1.5 1.9 -0.8 0 -1.5 -0.6 -1.5 -1.4z"/>
  <path d="M82.3 143.8 c-1.3 -0.6 -2.3 -1.4 -2.3 -1.8 0 -0.4 -2.4 -1.7 -5.2 -3.1 -2.9 -1.3 -5.8 -2.9 -6.4 -3.4 -0.6 -0.6 -3 -1.9 -5.3 -2.9 -3 -1.4 -4.1 -2.5 -4.1 -4.2 0 -1.7 0.4 -2.1 2 -1.7 1.1 0.3 2 1 2 1.5 0 0.5 0.5 0.6 1 0.3 0.6 -0.3 1 -0.1 1 0.5 0 0.6 0.5 0.8 1 0.5 0.6 -0.3 1 -0.1 1 0.5 0 0.6 0.5 0.8 1 0.5 0.6 -0.3 1 -0.1 1 0.5 0 0.6 0.4 0.9 1 0.5 0.5 -0.3 1.8 0.3 2.9 1.4 1.1 1.1 2.2 1.7 2.5 1.4 0.3 -0.4 0.6 -0.1 0.6 0.6 0 0.7 0.5 0.9 1 0.6 0.6 -0.3 1 -0.2 1 0.3 0 0.6 0.9 0.8 2 0.5 2.8 -0.7 2.6 -5.7 -0.3 -10.8 -5.7 -9.8 -24.8 -28.6 -47.7 -46.8 -9.6 -7.7 -19.2 -15 -21.2 -16.4 -2.1 -1.3 -3.8 -2.5 -3.8 -2.8 0 -1.6 3.4 -8.5 4.2 -8.5 0.5 0 0.7 -0.3 0.4 -0.8 -0.2 -0.4 0.2 -1.6 0.9 -2.6 1.3 -1.7 1.6 -1.7 5.7 1.6 5.3 4.3 18.9 13.4 32.4 21.7 9.2 5.6 11.1 6.3 19.5 7.7 8.4 1.3 10.2 2 18.3 7.2 4.9 3.1 9.5 5.9 10.2 6.2 1 0.4 25.2 22.1 31.2 28 1.4 1.3 1.2 1.5 -2.2 1.8 -3 0.3 -5 -0.5 -9.9 -3.6 -3.4 -2.2 -10.5 -6.4 -15.7 -9.2 -9.5 -5.3 -21.2 -12.5 -45.2 -27.8 -7.1 -4.5 -12.8 -8 -12.8 -7.8 0 0.2 2.8 2.5 6.3 5.2 20.5 15.9 40.3 35.4 45 44.1 2.5 4.7 2.8 6 2.5 13.5 -0.3 8.3 -0.3 8.3 -6.8 8.5 -3.6 0.1 -7.5 -0.3 -8.7 -0.9z"/>
  <path d="M305.3 133.7 c0.9 -0.8 1.7 -1.9 1.7 -2.4 0 -0.6 1.4 -1.3 3.1 -1.5 2.7 -0.4 3 -0.2 2.7 2.1 -0.3 2.3 -0.8 2.6 -4.8 2.9 -4 0.2 -4.3 0.1 -2.7 -1.1z"/>
  <path d="M316.3 127.7 c0.9 -0.8 1.7 -2 1.7 -2.6 0 -0.7 0.8 -1.1 1.8 -0.9 0.9 0.1 2.3 -0.1 3 -0.6 1 -0.6 1.3 -0.1 1 2 -0.3 2.7 -0.7 2.9 -4.8 3.2 -4 0.2 -4.3 0.1 -2.7 -1.1z"/>
 </g>
 <g fill="#94a4fb">
  <path d="M185.1 325.4 c-1.8 -3.6 -3 -6.8 -2.8 -7 0.9 -0.9 12.8 -2 13.9 -1.2 1 0.6 0.5 2.3 -2.2 7.5 -2 3.6 -4 6.8 -4.6 7 -0.6 0.2 -2.5 -2.6 -4.3 -6.3z"/>
  <path d="M209.2 206 c-0.2 -37.2 1.3 -80.8 2.9 -89.1 1.1 -5.6 1.3 -5.9 4 -5.9 2.9 0 2.9 0.1 2.9 6 0 4.5 -0.4 6 -1.4 6 -1.4 0 -1.5 1 -3.2 29.5 -0.3 5 -0.7 9.7 -0.9 10.5 -0.2 0.8 -0.7 11.4 -1 23.5 -0.4 12.1 -1.3 28.5 -2 36.5 -1.2 14.5 -1.2 14.5 -1.3 -17z"/>
  <path d="M160.7 131.1 c-0.9 -2.7 -1.7 -7.7 -1.7 -11.5 0 -5.9 0.2 -6.6 2 -6.6 2.3 0 2.7 1.3 3.5 13.8 0.5 7.3 0.4 9.2 -0.7 9.2 -0.7 0 -2.1 -2.2 -3.1 -4.9z"/>
 </g>
 <g fill="#899ceb">
  <path d="M166.7 222.1 c-0.4 -4.9 -1.1 -21.9 -1.7 -37.8 -1.2 -32 -2.3 -46.1 -5.6 -71.5 -0.6 -4.6 -0.5 -4.8 1.8 -4.8 5.2 0 6.5 8 7.8 47.5 1.5 45.6 1.3 75.5 -0.4 75.5 -0.9 0 -1.5 -2.4 -1.9 -8.9z"/>
  <path d="M209.1 171.5 c0 -37.6 0.7 -53.9 3 -60.2 0.9 -2.7 1.6 -3.3 4 -3.3 2.6 0 2.9 0.4 2.9 3 0 1.9 -0.5 3 -1.4 3 -2.1 0 -3.6 9.8 -4.2 28 -0.5 16.5 -3.2 63.2 -3.8 66 -0.2 0.8 -0.4 -15.6 -0.5 -36.5z"/>
  <path d="M97.1 206.9 c-2.4 -0.5 -4.5 -1 -4.7 -1.1 -0.1 -0.2 -3.1 -2.8 -6.6 -5.8 -3.5 -3 -10 -9.2 -14.6 -13.8 -8.4 -8.3 -8.4 -8.3 -8.9 -15.7 -0.6 -7.4 -0.6 -7.4 3.3 -6.8 3.8 0.6 3.6 0.2 -14.7 -18.3 -20.4 -20.8 -23.4 -24.7 -22.4 -29.4 0.4 -1.6 1.2 -3 1.8 -2.9 0.7 0 2.8 2.2 4.8 4.8 2 2.6 11.3 11.8 20.7 20.4 18.2 16.8 23.2 22.9 23.2 28.5 0 3.4 0 3.4 -6 3 -3.3 -0.1 -6 0 -6 0.3 0 1.2 21.7 21.5 28.2 26.4 5.8 4.3 6.7 5.4 6.8 8.3 0 1.7 -0.1 3.2 -0.2 3.1 -0.2 -0.1 -2.3 -0.5 -4.7 -1z"/>
  <path d="M264 205.6 c0 -1.5 1 -3 2.8 -4.2 1.5 -0.9 9.8 -8.1 18.5 -15.8 15.8 -14.1 15.8 -14.1 11.7 -14.4 -3.8 -0.3 -4 -0.5 -4 -3.6 0 -5.6 8.2 -15.7 29.7 -36.2 18.3 -17.6 23.8 -22.2 24.9 -21.2 0.2 0.3 0.7 1.9 1 3.6 0.5 2.5 0.3 3.2 -0.9 3.2 -0.9 0 -2.2 1 -2.8 2.2 -0.7 1.3 -8.3 9.5 -16.9 18.3 -14.9 15.3 -24.5 26.3 -23.7 27.2 0.3 0.2 2.4 -0.1 4.8 -0.6 6.3 -1.5 6.9 -1.4 6.9 1.2 0 3.4 -1.1 6.7 -2.3 6.7 -0.5 0 -4.6 3.5 -9.1 7.8 -9.8 9.3 -23.1 20.8 -26.8 23 -1.5 0.8 -2.9 2.4 -3.1 3.4 -0.4 1.4 -1.5 1.8 -5.6 1.8 -4.7 0 -5.1 -0.2 -5.1 -2.4z"/>
  <path d="M154 166 c0 -9.3 0.1 -10 2 -10 1.8 0 2 0.7 2 7.8 0 9 -0.7 12.2 -2.6 12.2 -1.1 0 -1.4 -2.2 -1.4 -10z"/>
  <path d="M267.2 147 c-0.6 -2.2 -1.2 -6.9 -1.2 -10.6 0 -8.9 3.8 -16.8 12.6 -26.3 l6.6 -7.2 -13.8 8.2 c-7.7 4.5 -15.5 9.3 -17.4 10.6 -2.1 1.4 -4.9 2.3 -7 2.3 -3.5 -0.1 -3.5 -0.1 1.5 -4.6 2.8 -2.5 8.8 -6.6 13.5 -9.1 23.9 -13.1 85.4 -51.5 95.7 -59.9 4 -3.3 6.7 -4.2 7.6 -2.6 0.6 0.9 -3.2 4.2 -16.3 14 -23.1 17.2 -52.6 43 -62.3 54.4 -7.7 9.1 -10.5 17 -8.5 23.9 1 3.6 1 3.6 5 2.2 2.2 -0.7 5.9 -2.3 8.1 -3.5 2.3 -1.2 5.7 -2.4 7.5 -2.9 2.9 -0.6 3.2 -0.5 3.2 1.7 0 1.9 -1.1 2.9 -5.2 5 -2.9 1.5 -6.6 3 -8.3 3.5 -1.6 0.4 -5.6 1.7 -8.7 2.8 -3.2 1.2 -7 2.1 -8.5 2.1 -2.4 0 -3 -0.6 -4.1 -4z"/>
  <path d="M89.5 146.5 c-4.4 -1.9 -8.1 -3.5 -8.2 -3.5 -0.2 0 -0.3 -1.1 -0.3 -2.5 0 -1.4 0.5 -2.5 1 -2.5 0.6 0 1 0.5 1 1.1 0 0.5 0.5 0.7 1 0.4 0.6 -0.3 1 -0.1 1 0.5 0 0.6 0.5 0.8 1 0.5 0.6 -0.3 1 -0.3 1 0.2 0 0.4 1.7 0.8 3.8 0.8 3.7 0 3.7 0 4 -5.3 0.4 -7.3 -3 -13.3 -14.3 -25.1 -13.8 -14.4 -40.6 -36.5 -61.7 -50.8 -9.7 -6.6 -9.7 -6.6 -8.3 -9.4 0.8 -1.5 1.9 -3 2.4 -3.4 0.5 -0.3 4 1.8 7.8 4.6 6.8 5.2 10.7 7.8 39.3 26.2 23.3 15 34.9 22.1 46.2 28.4 5.7 3.1 12.5 7.1 15.3 9 2.7 1.8 5.7 3.3 6.5 3.3 0.8 0.1 3.3 1.9 5.5 4 4 4 4 4 0 4 -3.4 0 -7.6 -2.2 -26.4 -13.5 -12.4 -7.4 -22.6 -13.4 -22.7 -13.2 -0.1 0.1 3.3 3.9 7.7 8.4 11.9 12.3 15.7 20.9 14.6 33 -0.4 3.7 -1.2 7 -1.9 7.5 -2.6 1.6 -7.5 0.7 -15.3 -2.7z"/>
  <path d="M69.3 136.3 c-0.7 -0.2 -1.3 -1.5 -1.3 -2.8 0 -1.8 0.4 -2.2 2 -1.8 1.1 0.3 2 1 2 1.5 0 0.5 0.3 0.7 0.8 0.5 0.4 -0.3 1.6 0.4 2.6 1.4 1.9 1.9 1.9 1.9 -1.5 1.8 -1.9 0 -4 -0.3 -4.6 -0.6z"/>
 </g>
 <g fill="#858ff4">
  <path d="M167 190.3 c-0.1 -5.1 -1.3 -39.7 -2 -52.8 -0.8 -16.5 -2.5 -25.5 -5 -26.3 -0.5 -0.2 -1 -1.2 -1 -2.3 0 -1.6 0.7 -1.9 4.4 -1.9 4.2 0 4.4 0.1 5 3.7 0.3 2.1 0.9 21 1.3 42.1 0.6 35.2 0.5 38.2 -1 38.2 -1 0 -1.7 -0.3 -1.7 -0.7z"/>
  <path d="M208.8 155.9 c-0.2 -16.2 -0.2 -33.8 0 -39.1 0.3 -9.8 0.3 -9.8 5.3 -9.8 4.2 0 4.9 0.3 4.9 2 0 1.1 -0.6 2 -1.4 2 -3.4 0 -4.8 11 -6.6 49.5 -0.6 13.2 -1.3 24.2 -1.5 24.4 -0.3 0.2 -0.6 -12.8 -0.7 -29z"/>
  <path d="M128.3 126.8 c-1.3 -0.6 -2.3 -1.4 -2.3 -1.8 0 -0.5 -1.1 -1.1 -2.5 -1.4 -2 -0.5 -2.5 -1.3 -2.5 -3.6 0 -2.9 0 -2.9 5.8 0.5 3.1 1.9 6.2 3.5 6.8 3.5 0.6 0 1.9 0.9 2.9 2 1.8 2 1.7 2 -2.1 1.9 -2.1 0 -4.9 -0.5 -6.1 -1.1z"/>
  <path d="M243.4 124.1 c0.9 -1 3.9 -3.2 6.6 -4.9 5 -3.1 5 -3.1 5 -0.2 0 1.7 -0.5 3 -1 3 -0.6 0 -2 0.9 -3.2 2 -1.3 1.2 -3.6 2 -5.6 2 -3.4 0 -3.4 -0.1 -1.8 -1.9z"/>
 </g>
 <g fill="#8591e3">
  <path d="M100.3 207.3 c-0.7 -0.2 -1.3 -1 -1.4 -1.6 0 -0.7 -4.1 -4.3 -9 -8.2 -5 -3.8 -13.4 -11.5 -18.7 -17 -9.4 -9.7 -9.6 -10 -6.9 -10.3 2.4 -0.3 4.2 1 11.5 8.2 4.8 4.6 12.1 11.3 16.2 14.7 10 8.2 11 9.4 11 12.4 0 2.5 -0.4 2.8 -2.7 1.8z"/>
  <path d="M266 204.4 c0 -2.1 0.5 -3.4 1.3 -3.4 0.7 0 1.8 -0.9 2.5 -2 0.8 -1.3 2.3 -2 4.2 -2 2.5 0 3 -0.4 3 -2.3 0 -2.9 4.9 -7.7 7.8 -7.7 1.5 0 2.2 -0.6 2.2 -1.8 0 -1.8 5.8 -8.2 7.5 -8.2 0.6 0 1.8 -1.2 2.8 -2.5 1.8 -2.5 1.8 -2.5 -2.8 -2.5 -4.5 0 -4.5 0 -4.5 -3.4 0 -4.9 9.5 -17.2 21.8 -28.3 5.3 -4.9 13.7 -12.7 18.7 -17.4 9.3 -8.9 13.4 -11.9 15.9 -11.9 2.3 0 -0.9 3.6 -22.6 25 -16.8 16.7 -28.7 30.4 -27.4 31.7 0.2 0.2 3.2 -0.3 6.7 -1.2 6.4 -1.5 14.9 -2 11.8 -0.7 -0.8 0.4 -4.6 3.4 -8.4 6.7 -3.8 3.3 -13.2 11.6 -21.1 18.5 -21.4 18.9 -19.4 17.5 -19.4 13.4z"/>
  <path d="M167 192 c0 -2.9 0.4 -4 1.5 -4 1.1 0 1.5 1.1 1.5 4 0 2.9 -0.4 4 -1.5 4 -1.1 0 -1.5 -1.1 -1.5 -4z"/>
  <path d="M166.6 177.2 c-0.9 -1.5 0.6 -5.2 2 -5.2 0.9 0 1.4 1.1 1.4 3 0 2.9 -2.1 4.2 -3.4 2.2z"/>
  <path d="M71.3 170.3 c-1.5 -0.3 -2.3 -1.2 -2.3 -2.4 0 -1.6 0.5 -1.8 3.6 -1.3 3.5 0.5 3.5 0.5 1.9 -2.8 -1 -1.8 -7.2 -8.5 -13.9 -14.8 -22.2 -21 -31.6 -30.9 -31.6 -33 0 -3.6 2.9 -2.1 10.3 5.3 4 3.9 12.6 11.9 19.1 17.7 6.5 5.8 14.3 13.4 17.2 17 4.7 5.6 5.4 7 5.4 10.7 0 4.3 0 4.3 -3.7 4.2 -2.1 -0.1 -4.8 -0.4 -6 -0.6z"/>
  <path d="M62 165.9 c0 -1.7 0.4 -2 2.3 -1.5 1.2 0.3 2.5 0.6 3 0.6 0.4 0 0.7 0.7 0.7 1.5 0 1 -1 1.5 -3 1.5 -2.4 0 -3 -0.4 -3 -2.1z"/>
  <path d="M262.1 149.6 c-1.6 -2.6 -2.1 -5 -2.1 -10.7 0 -8.1 2.1 -13.8 8 -22.4 3.1 -4.5 3.1 -4.5 0.3 -3.3 -1.5 0.7 -3.4 1.8 -4.1 2.5 -0.7 0.7 -1.8 1.3 -2.3 1.3 -0.5 0 -1.9 0.9 -3.1 2 -2.1 1.9 -8.8 2.9 -8.8 1.3 0 -1.1 3.2 -3.1 35 -22.2 15.7 -9.4 31.3 -19 34.8 -21.2 3.5 -2.3 6.5 -3.9 6.8 -3.7 0.2 0.3 -7.3 7 -16.8 14.8 -23.6 19.7 -33.7 29.9 -37.7 38.2 -3.4 7.3 -4 13.2 -1.6 17.7 0.8 1.6 1.2 3.1 0.8 3.4 -0.6 0.7 3.8 -0.5 8 -2.2 2.5 -1 2.7 -0.9 2.7 1.3 0 1.9 -1 2.8 -4.9 4.5 -2.7 1.1 -6.8 2.1 -9 2.1 -3.4 0 -4.2 -0.5 -6 -3.4z"/>
  <path d="M96.3 149.8 c-4.3 -1.7 -5.3 -2.5 -5.3 -4.4 0 -2.4 0 -2.4 4.8 -0.5 2.7 1.1 5.4 1.6 6.1 1.2 0.7 -0.5 1.2 -1 1.1 -1.2 -0.1 -0.2 0.1 -2.1 0.5 -4.1 1.1 -5.6 -3 -16.8 -8.2 -22.4 -15.8 -17.5 -37.7 -35.2 -71.8 -58.3 -6.6 -4.5 -12.2 -8.6 -12.3 -9.2 -0.2 -0.5 0.1 -1.6 0.8 -2.4 0.9 -1.1 2.7 -0.2 10 5.3 10.6 8 63 41.8 85.1 54.9 8.6 5.1 16.2 9.9 16.9 10.8 1.1 1.3 0.8 1.5 -2.4 1.5 -2 0 -3.6 -0.4 -3.6 -1 0 -0.5 -0.6 -1 -1.4 -1 -0.8 0 -2.1 -0.6 -2.8 -1.2 -0.8 -0.7 -4.2 -2.7 -7.5 -4.5 l-6.1 -3.1 4.9 6.4 c5.6 7.5 7.9 14.2 7.9 23.3 0 9.3 -1.4 11.5 -7 11.8 -2.7 0.1 -6.6 -0.6 -9.7 -1.9z"/>
  <path d="M79 139.5 c0 -3.1 0.9 -3.1 4.6 0 2.9 2.5 2.9 2.5 -0.8 2.5 -3.4 0 -3.8 -0.3 -3.8 -2.5z"/>
 </g>
 <g fill="#7f88e0">
  <path d="M261 206.2 c0 -2.1 0.8 -3.5 2.5 -4.6 1.4 -0.9 6.2 -5.1 10.8 -9.4 4.5 -4.2 11 -10.2 14.3 -13.2 6 -5.5 6 -5.5 1.2 -5.2 -4.8 0.4 -4.8 0.4 -4.8 -2.8 0 -3.4 1.5 -5.8 11.8 -18.3 11.5 -14 48.5 -44.7 50.9 -42.3 0.7 0.6 -19.5 20.8 -32.9 32.9 -8.8 7.9 -22.6 24.3 -21.4 25.4 0.2 0.3 4.2 -0.5 8.7 -1.6 13.7 -3.5 14.1 -2.8 3.2 6.1 -4.3 3.5 -13 11 -19.4 16.8 -17.6 16 -20.1 18 -22.6 18.6 -2 0.5 -2.3 0.3 -2.3 -2.4z"/>
  <path d="M100.4 206.5 c-0.3 -0.8 -4.7 -4.9 -9.8 -9 -5 -4.2 -13.5 -11.9 -18.8 -17.2 -8.5 -8.4 -9.8 -10.1 -9.8 -13 0 -1.8 0.1 -3.3 0.3 -3.3 0.2 0 2.6 0.6 5.3 1.4 9 2.5 10.4 2.7 10.4 1.3 0 -2.4 -10.8 -14.2 -22.6 -24.7 -22.8 -20.2 -30.3 -29 -24.9 -29 0.8 0 9.7 7.3 19.8 16.2 28.8 25.7 34.7 32.3 34.7 39 0 3.8 0 3.8 -4.3 3.8 -2.3 0 -5.7 -0.4 -7.5 -1 -3 -0.8 -3.2 -0.7 -2.1 0.7 2.1 2.5 23.9 21.4 30.7 26.6 4.6 3.6 6.2 5.4 6.2 7.3 0 2.1 -0.5 2.4 -3.5 2.4 -2.2 0 -3.8 -0.6 -4.1 -1.5z"/>
  <path d="M167 172 c0 -4.7 0.3 -6 1.5 -6 1.2 0 1.5 1.3 1.5 6 0 4.7 -0.3 6 -1.5 6 -1.2 0 -1.5 -1.3 -1.5 -6z"/>
  <path d="M257 150.8 c-2.6 -5.8 -2.6 -15.1 0.1 -23.1 1.1 -3.4 2.6 -6.8 3.2 -7.6 1 -1.1 0.8 -1.3 -1.3 -0.6 -1.3 0.4 -3 1.4 -3.8 2.1 -0.7 0.8 -2 1.4 -2.8 1.4 -0.8 0 -1.4 0.5 -1.4 1 0 0.6 -0.7 1 -1.5 1 -0.8 0 -1.5 0.5 -1.5 1 0 0.6 -1.6 1 -3.6 1 -4.7 0 -3.9 -1.1 6 -7.4 8.7 -5.6 43.9 -26.2 49.6 -29.1 4.1 -2 4.7 -2.6 -10.1 10.3 -14.5 12.6 -19 17.7 -23.4 26.5 -4.2 8.3 -4.6 14.2 -1.4 19.3 2.3 3.7 2.6 3.8 6.3 2.4 2.3 -0.8 2.6 -0.7 2.6 1.4 0 1.8 -0.8 2.5 -3.9 3.4 -2.1 0.7 -5.5 1.2 -7.5 1.2 -3.4 0 -3.9 -0.4 -5.6 -4.2z"/>
  <path d="M98.8 151.8 c-3.8 -1.6 -4.8 -2.5 -4.8 -4.4 0 -1.3 0.2 -2.4 0.4 -2.4 0.2 0 3 1 6.1 2.2 5.3 2 5.7 2 7.3 0.4 2.9 -2.9 2.3 -13.8 -1.2 -20.9 -3.8 -7.9 -18 -22.5 -30.7 -31.8 -5.6 -4.1 -16.3 -11.9 -23.7 -17.3 -7.5 -5.5 -19.6 -13.8 -27 -18.6 -7.4 -4.7 -13.3 -9 -13.1 -9.6 0.7 -1.6 2.5 -0.8 9 4.4 15.8 12.3 99.1 64.7 114.1 71.6 2 1 4.4 2.6 5.4 3.7 1.7 1.8 1.6 1.9 -2.4 1.9 -2.3 0 -4.2 -0.4 -4.2 -0.8 0 -0.4 -1.6 -1.4 -3.5 -2.1 -1.9 -0.7 -3.5 -1.7 -3.5 -2.2 0 -0.5 -0.6 -0.9 -1.4 -0.9 -0.8 0 -2.1 -0.6 -2.8 -1.2 -0.8 -0.7 -3.6 -2.5 -6.4 -4 -5 -2.7 -5 -2.7 -2 3.5 2.6 5.1 3.2 7.6 3.4 14.7 0.3 6.2 -0.1 9.7 -1.2 12.3 -1.5 3.7 -1.5 3.7 -7.3 3.6 -3.5 0 -7.7 -0.9 -10.5 -2.1z"/>
  <path d="M166.6 140.8 c-0.3 -1.3 -0.6 -4.4 -0.6 -7 0 -4.1 0.3 -4.8 2 -4.8 1.8 0 2 0.7 2 7 0 5.3 -0.3 7 -1.4 7 -0.7 0 -1.6 -1 -2 -2.2z"/>
  <path d="M165.6 115.8 c-1.2 -4.8 -0.7 -7.8 1.4 -7.8 1.7 0 2 0.7 2 5 0 3.6 -0.4 5 -1.4 5 -0.7 0 -1.6 -1 -2 -2.2z"/>
 </g>
 <g fill="#7a78f5">
  <path d="M166.6 138.5 c-0.4 -14.1 -0.9 -26.9 -1.3 -28.5 -0.6 -3.2 1.2 -4.1 3.5 -1.8 1.8 1.8 1.7 55.8 -0.1 55.8 -1.1 0 -1.5 -5.2 -2.1 -25.5z"/>
  <path d="M208.9 132.4 c-0.2 -3.4 -0.3 -10.5 -0.1 -15.8 0.3 -7.9 0.6 -9.6 1.9 -9.6 1.3 0 1.4 1.1 0.8 7.8 -0.4 4.2 -1.1 11.3 -1.4 15.7 -0.7 8 -0.7 8 -1.2 1.9z"/>
  <path d="M237.8 128.8 c1.1 -1.3 3.5 -3.1 5.1 -4.1 3.1 -1.8 3.1 -1.8 3.1 0.9 0 3.4 -2.5 5.3 -6.9 5.4 -3.4 0 -3.4 0 -1.3 -2.2z"/>
 </g>
 <g fill="#756ff4">
  <path d="M235.5 131 c0.3 -0.5 1.9 -1.9 3.5 -3 3 -2.1 3 -2.1 3 0.9 0 2.9 -0.3 3.1 -3.6 3.1 -2 0 -3.3 -0.4 -2.9 -1z"/>
 </g>
 <g fill="#797fde">
  <path d="M257 206.8 c0.1 -1.7 4.5 -6.3 15.3 -16.3 15.3 -14 15.3 -14 11.5 -14.3 -3.5 -0.3 -3.8 -0.6 -3.8 -3.3 0 -9.5 33.7 -43.6 55.6 -56.3 14.9 -8.6 12.1 -5 -13.7 17.6 -13.9 12.1 -22.6 21.4 -31.2 33.1 -1.6 2 -2.4 3.7 -2 3.7 0.4 0 5.1 -1.1 10.3 -2.5 5.2 -1.4 9.9 -2.5 10.4 -2.5 1.5 0 -1.7 3.2 -8.3 8.2 -3.5 2.6 -11.9 9.9 -18.6 16.2 -6.7 6.2 -13.6 12.3 -15.3 13.6 -1.8 1.3 -3.2 3 -3.2 3.7 0 0.8 -1.3 1.3 -3.5 1.3 -3 0 -3.5 -0.3 -3.5 -2.2z"/>
  <path d="M102.9 205.1 c-1.4 -1.4 -7 -6.3 -12.5 -10.7 -15.9 -13 -28.4 -25.3 -28.4 -27.8 0 -2.3 0 -2.3 9.5 0.2 5.2 1.4 9.8 2.2 10.2 1.9 2 -2.1 -11.4 -16.1 -37.7 -39.4 -12.3 -11 -14.5 -13.3 -14.5 -15.8 0 -4 1.4 -4 6 0.1 2.2 2 10.5 9.1 18.5 15.8 15.5 12.9 25.5 22.5 32 30.7 3.3 4.2 4 5.8 4 9.6 0 4.6 0 4.6 -6.6 4 -5.3 -0.4 -6.3 -0.2 -5.3 0.8 12.1 11 23.6 20.9 28.2 24.3 4.2 3.2 5.7 4.9 5.7 6.7 0 2.2 -0.4 2.5 -3.2 2.4 -2.1 -0.1 -4.2 -1.1 -5.9 -2.8z"/>
  <path d="M167 165 c0 -2.9 0.4 -4 1.5 -4 1.1 0 1.5 1.1 1.5 4 0 2.9 -0.4 4 -1.5 4 -1.1 0 -1.5 -1.1 -1.5 -4z"/>
  <path d="M251.6 154.3 c-2.5 -5.2 -3.1 -15.4 -1.3 -23 1.5 -6.7 1.4 -7.1 -1.7 -4.8 -1.1 0.8 -3.6 1.5 -5.5 1.5 -3.6 0 -3.6 0 -0.6 -2.6 3.4 -3 21.4 -13.8 30.6 -18.5 l6.3 -3.1 -5.8 6.3 c-3.2 3.5 -7.1 8.2 -8.6 10.5 -3.4 4.8 -7 15 -7 19.6 0 4.1 3.4 11.8 5.2 11.8 0.7 0 4 -1.2 7.3 -2.5 3.3 -1.4 6.1 -2.5 6.3 -2.5 0.2 0 0.2 1.5 0 3.2 -0.3 2.9 -0.8 3.4 -3.8 4 -1.9 0.3 -5.3 1.3 -7.5 2.2 -2.2 0.8 -5.8 1.5 -8.1 1.6 -3.7 0 -4.2 -0.3 -5.8 -3.7z"/>
  <path d="M108.5 156 c-1.1 -0.4 -3.5 -1.4 -5.2 -2 -2.5 -0.9 -3.3 -1.9 -3.3 -3.6 0 -2.4 0 -2.4 3.6 -0.9 6.1 2.5 8.3 2 10.1 -2.2 4.1 -10 -0.9 -23.2 -14.5 -37.5 -8.3 -8.7 -8.5 -9 -4.2 -6.6 2.5 1.4 11 6.3 19 10.9 8 4.5 16.3 9.2 18.5 10.3 2.2 1.2 4.2 2.4 4.3 2.9 0.2 0.4 0.9 0.7 1.6 0.7 0.7 0 2.1 0.9 3.1 2 1.8 2 1.7 2 -2.1 2 -2.7 -0.1 -5.9 -1.3 -10.4 -4 -3.6 -2.1 -6.6 -3.7 -6.8 -3.5 -0.2 0.2 0.1 2 0.7 4.2 1.8 6.4 1.3 19.2 -0.9 24.1 -1.9 4.1 -2 4.2 -6.7 4.1 -2.6 0 -5.7 -0.4 -6.8 -0.9z"/>
  <path d="M92 146.5 c0 -3 0.3 -3 4.1 -0.8 3.8 2.3 3.7 3.3 -0.6 3.3 -3.1 0 -3.5 -0.3 -3.5 -2.5z"/>
  <path d="M77 138.6 c0 -1.9 0.4 -2.3 1.9 -1.9 1.1 0.3 2.7 1.4 3.7 2.4 1.7 1.8 1.6 1.9 -1.9 1.9 -3.2 0 -3.7 -0.3 -3.7 -2.4z"/>
  <path d="M166.3 128 c0 -2.5 0.2 -3.5 0.4 -2.2 0.2 1.2 0.2 3.2 0 4.5 -0.2 1.2 -0.4 0.2 -0.4 -2.3z"/>
 </g>
 <g fill="#7072db">
  <path d="M110.8 208.3 c-1 -0.2 -1.8 -0.8 -1.8 -1.3 0 -0.5 -2.6 -2.9 -5.7 -5.2 -3.2 -2.4 -10.3 -8.4 -15.8 -13.3 -5.5 -5 -13.4 -11.9 -17.5 -15.4 -11.1 -9.5 -11.1 -9.4 5.5 -4.7 4.9 1.4 9.6 2.6 10.2 2.6 6.3 0 -10 -18.1 -34.7 -38.6 -21.8 -18.1 -24.9 -21.4 -20.2 -21.4 6.3 0 50.3 37.1 60.9 51.4 3.3 4.5 4.3 6.7 4.3 9.7 0 3.9 0 3.9 -4.9 3.9 -2.7 0 -6.2 -0.5 -7.8 -1.1 -2.3 -0.9 -2.1 -0.4 1.7 2.8 2.5 2.1 8.1 7.1 12.5 11 4.4 4 10.4 9 13.2 11 4.2 3 5.3 4.4 5.3 6.6 0 2.7 -1 3.1 -5.2 2z"/>
  <path d="M255 206 c0 -1.6 0.4 -3 0.8 -3 0.5 0 6.6 -5.6 13.6 -12.5 12.1 -11.9 12.6 -12.5 9.7 -12.5 -3 0 -3.1 -0.2 -3.1 -4.3 0 -3.2 0.9 -5.5 3.7 -9.7 4.2 -6.3 23 -25.3 32.3 -32.6 6 -4.7 29.1 -18.6 29.8 -17.9 0.5 0.4 -4.5 4.9 -19.8 17.8 -14.5 12.1 -30 27.8 -35.2 35.7 -2 3 -3.5 5.7 -3.3 5.8 0.2 0.2 4.9 -0.8 10.5 -2.3 5.6 -1.4 10.4 -2.4 10.7 -2.2 0.2 0.3 -2.7 2.7 -6.5 5.5 -6.6 4.8 -37.4 32.6 -38 34.3 -0.2 0.5 -1.5 0.9 -2.8 0.9 -2 0 -2.4 -0.5 -2.4 -3z"/>
  <path d="M153 159 c0 -3.7 0.2 -4 2.6 -4 2.4 0 2.6 0.3 2 3.1 -0.3 1.7 -0.6 3.5 -0.6 4 0 0.5 -0.9 0.9 -2 0.9 -1.7 0 -2 -0.7 -2 -4z"/>
  <path d="M247.1 158.4 c-2.5 -3.2 -3.4 -9 -3 -19.6 0.4 -8.3 0.4 -8.3 -3.3 -7.9 -2.1 0.1 -3.8 -0.1 -3.8 -0.6 0 -0.9 9.5 -7.4 17.3 -11.8 2.6 -1.5 4.7 -2.2 4.7 -1.6 0 0.6 -1.1 3.8 -2.4 7.1 -5 12.2 -5.5 20 -1.9 27.6 1.9 3.8 2.2 3.9 7.8 1.8 2.2 -0.9 5.5 -1.9 7.3 -2.2 1.8 -0.4 3.2 -1.1 3.1 -1.6 -0.1 -1.2 8.5 -5.7 12.9 -6.6 2.9 -0.7 3.2 -0.6 3.2 1.4 0 1.7 -1.3 2.8 -5.5 4.9 -3.1 1.5 -6.9 2.7 -8.5 2.7 -1.7 0 -3 0.5 -3 1.3 0 1.6 -15.6 7.7 -19.7 7.7 -2.2 0 -3.8 -0.8 -5.2 -2.6z"/>
  <path d="M111.3 157.7 c-4.1 -1.7 -5.3 -2.7 -5.3 -4.4 0 -2 0.3 -2.1 3.3 -1.1 7.6 2.4 7.5 2.4 9.8 -2.8 3.3 -7.3 2.3 -16.2 -2.8 -26.5 -2.1 -4.3 -3.5 -7.9 -2.9 -7.9 0.6 0 6.6 3.2 13.3 7 6.8 3.9 12.7 7 13.1 7 0.5 0 1.7 0.9 2.7 2 1.8 2 1.7 2 -2.1 2 -2.1 0 -5.4 -0.9 -7.2 -2 -1.8 -1.1 -3.4 -2 -3.5 -2 -0.1 0 -0.2 5.1 -0.2 11.3 0 9.2 -0.4 11.9 -2 15.2 -1.9 3.7 -2.3 4 -6.5 4.2 -2.8 0.2 -6.4 -0.6 -9.7 -2z"/>
  <path d="M88.3 146.8 c-1.4 -0.7 -2.3 -2 -2.3 -3.4 0 -2.1 0.3 -2.3 2.7 -1.3 3.8 1.4 8.3 4.2 8.3 5.1 0 1.2 -6.1 0.8 -8.7 -0.4z"/>
 </g>
 <g fill="#6869d7">
  <path d="M113 207.8 c0 -0.7 -1.7 -2.4 -3.7 -3.8 -2.1 -1.4 -6.8 -5.3 -10.6 -8.7 -7.7 -7 -28.9 -24.9 -32.7 -27.5 -2.5 -1.8 -2.5 -1.8 0 -1.4 1.4 0.2 7.3 1.8 13.1 3.5 11.1 3.2 13.9 3.7 13.9 2.2 0 -2.1 -9.5 -13.3 -18.6 -22.1 -5.5 -5.2 -16.5 -14.7 -24.4 -21.1 -15.1 -12.2 -19.8 -16.5 -18.7 -17.5 0.3 -0.3 3.2 0.9 6.4 2.9 3.2 1.9 9.8 5.6 14.7 8.2 11.1 6 30.3 20.3 39.5 29.3 3.7 3.7 8.7 9.6 11 13.1 3.4 5.3 4.1 7.3 4.1 11.3 0 4.1 -0.3 4.8 -1.9 4.8 -1.4 0 0.5 2.5 6.7 8.8 4.8 4.8 10.4 10 12.5 11.6 2.4 1.9 3.7 3.6 3.7 5.2 0 2.3 -0.3 2.4 -7.5 2.4 -5.3 0 -7.5 -0.4 -7.5 -1.2z"/>
  <path d="M246 206.7 c0 -2.2 7.2 -10.9 16.4 -20.1 3.7 -3.6 3.9 -4.2 3.7 -9 -0.3 -7.5 4.6 -15.1 18.4 -28.4 10.6 -10.3 11.8 -11.1 30.9 -21.5 10.9 -5.9 20 -10.6 20.2 -10.4 0.2 0.1 -5.8 5.2 -13.3 11.2 -21.8 17.5 -43.3 39.9 -43.3 45.2 0 1.5 3.5 1 12.5 -1.8 3.3 -1 6.6 -1.9 7.3 -1.9 0.7 0 -2.4 2.8 -6.9 6.2 -4.5 3.4 -13.6 11.5 -20.2 18 -6.6 6.5 -12.4 11.8 -12.9 11.8 -0.4 0 -0.8 0.7 -0.8 1.5 0 1.2 -1.3 1.5 -6 1.5 -5.6 0 -6 -0.2 -6 -2.3z"/>
  <path d="M236.4 160.8 c-0.9 -2.9 -1.9 -9.5 -2.1 -14.5 -0.5 -9.2 -0.6 -9.3 -3.1 -9.3 -2.5 0 -2.5 0 -0.1 -2.6 2.5 -2.6 16.2 -11.4 17.9 -11.4 1.3 0 1.2 0.2 -0.5 7.5 -2.6 10.8 -1.6 22.3 2.3 25.8 1.7 1.6 2.4 1.5 10.5 -1.8 4.8 -1.9 8.9 -3.5 9.2 -3.5 0.3 0 0.5 1.1 0.5 2.4 0 1.7 -0.8 2.7 -3.2 3.6 -1.8 0.7 -7.3 3 -12.1 5.1 -5.9 2.6 -10.2 3.9 -13.2 3.9 -4.4 0 -4.4 0 -6.1 -5.2z"/>
  <path d="M117 161.2 c-17.5 -7.8 -22 -10.5 -22 -12.9 0 -1.3 0.2 -2.3 0.4 -2.3 0.1 0 5 2.2 10.8 4.9 13.9 6.6 15.2 6.9 17.2 3.8 3.3 -4.9 4 -12.4 2.3 -22.6 -0.9 -5.2 -1.5 -9.6 -1.3 -9.8 0.8 -0.8 20.4 10.1 23.1 12.9 3 3 3 3 -2.2 2.6 -5.3 -0.5 -5.3 -0.5 -5.4 6.6 0 4.5 -0.9 9.5 -2.2 13.6 -2.2 6.5 -2.2 6.5 -7.2 6.8 -4 0.2 -6.7 -0.6 -13.5 -3.6z"/>
 </g>
 <g fill="#5045cd">
  <path d="M128.8 209.3 c-3 -0.5 -7 -3.7 -18.2 -14.9 -4.5 -4.4 -11.9 -10.7 -16.6 -13.9 -4.7 -3.2 -8.9 -6.2 -9.4 -6.6 -0.5 -0.5 3.1 0.2 8 1.6 4.9 1.4 9.5 2.5 10.2 2.5 4.2 0 -3.6 -13.1 -13.9 -23.2 -3.8 -3.7 -14.7 -12.6 -24.4 -19.8 -9.6 -7.2 -17.5 -13.3 -17.5 -13.5 0 -1.7 13.1 4.9 53 26.9 10.9 6.1 28.7 13.8 30.7 13.4 1.2 -0.2 2.6 -2.6 4.1 -7.3 1.9 -5.8 2.3 -8.4 1.9 -15.2 -0.4 -6.5 -0.2 -8.3 0.9 -8.3 2.2 0 10.4 4.8 14.5 8.5 2.1 1.9 4.4 3.5 4.9 3.5 0.6 0 1 3.2 1 7.5 0 4.4 -0.4 7.5 -1 7.5 -0.6 0 -0.8 1.1 -0.4 2.5 0.5 2.2 0.3 2.5 -2 2.5 -2.6 0 -2.6 0 -2.8 -9.7 l-0.1 -9.8 -0.8 9 c-0.4 5 -1.3 11.3 -2.1 14 -1.1 4.3 -1.7 5 -4.1 5.3 -3.4 0.4 -10.2 -1.8 -22.8 -7.3 l-9.5 -4.1 3.8 7.3 c2.1 4.1 3.8 8.7 3.8 10.3 0 1.6 0.5 3.2 1 3.5 0.6 0.3 1 2.1 1 3.8 0 3.5 4.4 8.5 13.8 15.6 3.2 2.5 4.2 3.9 4.2 6.2 0 2.8 -0.2 2.9 -4.2 2.8 -2.4 -0.1 -5.5 -0.4 -7 -0.6z"/>
  <path d="M234 207.2 c0 -1.9 1.1 -3.9 3.6 -6.3 1.9 -1.8 5.5 -6.4 7.9 -10.1 2.5 -3.6 4.9 -6.9 5.5 -7.3 0.5 -0.3 1 -1.4 1 -2.5 0 -2.3 5.3 -14.2 8.1 -18.2 2.2 -3 2.2 -3 -2.7 -0.5 -10.6 5.4 -24.5 10.7 -27.7 10.7 -3.3 0 -3.5 -0.3 -4.6 -4.4 -0.6 -2.5 -1.1 -6.1 -1.1 -8 0 -2.4 -0.5 -3.6 -1.4 -3.6 -1.7 0 -2.6 -3.1 -2.6 -9 0.1 -4.1 0.5 -4.9 4.5 -8.3 4.8 -4.1 13.3 -9.2 14.1 -8.5 0.2 0.3 -0.1 1.9 -0.7 3.7 -2.3 6.6 1.2 28.1 4.6 28.1 1.2 0 10.4 -3.8 24 -10 6.2 -2.8 21.8 -10.6 34.4 -17.3 6.3 -3.3 11.1 -5.5 10.7 -4.9 -0.4 0.7 -4.9 4.5 -9.9 8.6 -17.3 13.9 -32.7 31.7 -32.7 37.9 0 1.7 0.5 1.9 4.8 1.3 4.7 -0.7 4.7 -0.7 1.1 2.6 -10.9 9.9 -14 12.9 -19.7 19.3 -3.4 3.8 -6.2 7.2 -6.2 7.6 0 0.9 -5.5 1.9 -10.6 1.9 -4.2 0 -4.4 -0.2 -4.4 -2.8z"/>
 </g>
 <g fill="#4b3bcb">
  <path d="M124.2 191.1 c-3.7 -0.9 -6.8 -2.4 -7.3 -3.4 -0.8 -1.3 -0.6 -1.7 0.8 -1.7 1.3 0 1.4 -0.3 0.5 -1.2 -0.7 -0.7 -1.2 -2.4 -1.2 -3.9 0 -4.8 -6.6 -16 -13.7 -23.4 -3.8 -3.8 -7.4 -7.8 -8.2 -8.7 -0.7 -1 5 1.2 13 5.1 14.8 7 30.9 13.7 34.4 14.3 1.7 0.3 2.2 -0.7 3.7 -6.2 0.9 -3.6 1.6 -10 1.7 -14.3 0.1 -7.3 0.2 -7.8 2.1 -7.3 1.1 0.3 2.8 0.8 3.8 1.1 1.5 0.4 1.7 1.6 1.4 9.5 -0.2 5.9 0 9 0.7 9 0.7 0 1.1 3.1 1.1 8.5 0 8.5 0 8.5 -3.7 8.5 -2.1 -0.1 -8.3 -1.8 -13.8 -3.9 -5.5 -2.1 -10.1 -3.7 -10.3 -3.6 -0.6 0.5 6.2 15.1 7.4 15.8 0.8 0.4 1.4 2.4 1.4 4.2 0 3.4 -0.1 3.5 -3.7 3.4 -2.1 0 -6.6 -0.8 -10.1 -1.8z"/>
  <path d="M236 189.6 c0 -2 0.4 -3.6 0.9 -3.6 0.7 0 8.1 -14.9 8.1 -16.4 0 -0.3 -4.5 1.5 -10 4 -15.1 6.6 -14 7.7 -14 -13.5 0 -17.9 0 -17.9 3.2 -19.4 1.8 -0.9 3.4 -1.4 3.6 -1.3 0.1 0.2 -0.2 1.6 -0.9 3.2 -1.5 4.1 0.8 27.4 2.8 27.4 0.9 0 19.6 -8.2 32.7 -14.4 7.7 -3.7 14.1 -6.5 14.3 -6.3 0.2 0.2 -2.9 4 -6.8 8.3 -7 7.9 -15.4 22.7 -14.4 25.6 0.2 0.7 -1.1 3 -3 5.2 -3.2 3.5 -3.9 3.9 -10 4.3 -6.5 0.6 -6.5 0.6 -6.5 -3.1z"/>
 </g>
 <g fill="#3f19cb">
  <path d="M142.5 196.9 c-10 -4.2 -13.3 -6 -13.9 -7.4 -0.4 -1 0.3 -1.1 2.7 -0.4 4.1 1.2 4.6 1.1 2.5 -0.4 -0.9 -0.7 -3.3 -5.3 -5.3 -10.3 -2.1 -4.9 -4.6 -10.6 -5.6 -12.7 -1.1 -2 -1.7 -3.7 -1.3 -3.7 0.3 0 6.8 2.5 14.5 5.6 7.6 3 15.4 5.8 17.4 6.1 3.5 0.6 3.5 0.6 3.5 13.4 0 12.9 0 12.9 -3.7 12.8 -2.1 -0.1 -6.9 -1.4 -10.8 -3z"/>
  <path d="M221 187.2 l0 -11.8 15.3 -6.7 c8.3 -3.7 15.5 -6.7 15.9 -6.7 0.4 0 0.1 1.2 -0.7 2.8 -0.8 1.5 -3.3 7.1 -5.6 12.5 -2.3 5.4 -4.9 10.6 -5.8 11.4 -1.5 1.5 -1.3 1.6 1.6 1 4.7 -0.9 3.2 1.8 -2 3.7 -2.3 0.9 -6.7 2.5 -9.7 3.6 -9.3 3.4 -9 3.7 -9 -9.8z"/>
 </g>
 <g fill="#2f338d">
  <path d="M142.8 210.3 c-4.1 -0.3 -5.8 -0.8 -5.8 -1.8 0 -0.7 -1.9 -2.8 -4.2 -4.6 -10.5 -8 -19 -17.9 -15.4 -17.9 3.2 0 24.5 6 30 8.4 3.2 1.4 6.7 2.6 7.7 2.6 1.7 0 1.9 0.8 1.9 6.4 0 5.8 -0.2 6.4 -2.2 7 -1.3 0.3 -3.2 0.5 -4.3 0.4 -1.1 -0.1 -4.6 -0.3 -7.7 -0.5z"/>
  <path d="M222.3 210.4 c-0.9 -0.4 -1.3 -2.9 -1.3 -7.4 0 -5.5 0.3 -6.9 1.8 -7.5 10.9 -4.4 28.2 -8.2 28.2 -6.1 0 1.5 -7 11.2 -10.4 14.5 -2 1.9 -3.6 4.1 -3.6 4.8 0 0.9 -1.5 1.3 -4.7 1.3 -2.7 0 -5.7 0.2 -6.8 0.5 -1.1 0.2 -2.6 0.2 -3.2 -0.1z"/>
 </g>
</svg>